<?xml version="1.0" standalone="no"?>
<!DOCTYPE svg PUBLIC "-//W3C//DTD SVG 20010904//EN"
 "http://www.w3.org/TR/2001/REC-SVG-20010904/DTD/svg10.dtd">
<svg version="1.0" xmlns="http://www.w3.org/2000/svg"
 width="2560.000000pt" height="788.000000pt" viewBox="0 0 2560.000000 788.000000"
 preserveAspectRatio="xMidYMid meet">

<g transform="translate(0.000000,788.000000) scale(0.100000,-0.100000)"
fill="#000000" stroke="none">
<path d="M23078 7290 c-834 -62 -1263 -376 -1423 -1042 -49 -204 -60 -327 -59
-668 0 -275 3 -333 22 -455 56 -359 169 -658 345 -922 196 -293 392 -483 902
-875 306 -235 399 -314 530 -449 260 -269 375 -534 375 -864 0 -270 -72 -440
-217 -513 -130 -67 -335 -47 -439 42 -22 19 -55 61 -72 94 -59 110 -64 152
-69 525 l-5 337 -690 0 -690 0 5 -487 c5 -510 10 -582 56 -789 163 -727 686
-1009 1816 -981 467 12 752 65 1000 186 138 68 223 129 314 226 145 156 244
361 305 636 79 360 95 915 36 1276 -101 619 -391 1084 -965 1545 -44 36 -215
166 -380 290 -165 125 -343 265 -396 312 -202 179 -325 358 -381 553 -20 68
-23 100 -22 248 0 300 55 432 206 500 51 23 82 29 159 33 219 10 344 -79 406
-289 12 -42 17 -119 20 -346 l5 -293 664 0 664 0 0 363 c0 400 -12 558 -56
754 -61 274 -171 490 -334 653 -209 209 -504 333 -911 385 -147 19 -555 27
-721 15z"/>
<path d="M7560 6545 l0 -625 518 -2 517 -3 3 -2772 2 -2773 690 0 690 0 0
2775 0 2775 510 0 510 0 -2 623 -3 622 -1717 3 -1718 2 0 -625z"/>
<path d="M12250 3770 l0 -3400 1425 0 1425 0 0 610 0 610 -732 2 -733 3 -3
2788 -2 2787 -690 0 -690 0 0 -3400z"/>
<path d="M16473 4333 c3 -3125 -2 -2893 63 -3151 117 -470 386 -737 863 -857
410 -104 1152 -113 1617 -20 126 26 293 79 378 122 346 173 537 470 611 948
33 216 36 528 33 3175 l-3 2615 -690 0 -690 0 -5 -2690 c-5 -2548 -6 -2693
-23 -2750 -40 -136 -90 -199 -186 -237 -77 -30 -287 -32 -370 -4 -71 25 -132
81 -165 155 -58 130 -56 15 -56 2894 l0 2637 -690 0 -690 0 3 -2837z"/>
<path d="M2420 3794 c-1202 -1840 -2193 -3359 -2203 -3375 l-19 -29 829 0 828
1 1485 2270 c817 1249 1488 2273 1493 2276 4 2 7 -1020 7 -2271 l0 -2276 700
0 700 0 0 3375 0 3375 -817 0 -818 -1 -2185 -3345z"/>
</g>
</svg>
